<?xml version="1.0" encoding="iso-8859-1"?>
<!-- Generator: Adobe Illustrator 18.1.1, SVG Export Plug-In . SVG Version: 6.00 Build 0)  -->
<svg version="1.1" id="Capa_1" xmlns="http://www.w3.org/2000/svg" xmlns:xlink="http://www.w3.org/1999/xlink" x="0px" y="0px"
	 viewBox="0 0 174.239 174.239" style="enable-background:new 0 0 174.239 174.239;" xml:space="preserve">
<g>
	<path d="M65.289,114.046v16.036h14.935v-16.036h19.539v26.612h14.935V99.111H44.396c-3.114-8.937-11.535-15.409-21.52-15.409
		C10.263,83.702,0,93.965,0,106.578s10.263,22.874,22.876,22.874c9.985,0,18.406-6.47,21.52-15.406H65.289z M22.876,114.517
		c-4.378,0-7.941-3.561-7.941-7.939c0-4.378,3.564-7.941,7.941-7.941s7.941,3.564,7.941,7.941
		C30.818,110.956,27.254,114.517,22.876,114.517z"/>
	<path d="M143.796,61.436V3.853H86.33v57.583H55.886V87.12h14.935V76.371H86.33h57.466h15.508v79.081H70.821v-11.911H55.886v26.846
		h118.353V61.436H143.796z M101.264,61.436V18.788h27.597v42.648H101.264z"/>
</g>
<g>
</g>
<g>
</g>
<g>
</g>
<g>
</g>
<g>
</g>
<g>
</g>
<g>
</g>
<g>
</g>
<g>
</g>
<g>
</g>
<g>
</g>
<g>
</g>
<g>
</g>
<g>
</g>
<g>
</g>
</svg>
