<?xml version="1.0" standalone="no"?>
<!DOCTYPE svg PUBLIC "-//W3C//DTD SVG 20010904//EN"
 "http://www.w3.org/TR/2001/REC-SVG-20010904/DTD/svg10.dtd">
<svg version="1.0" xmlns="http://www.w3.org/2000/svg"
 width="1536.000000pt" height="1024.000000pt" viewBox="0 0 1536.000000 1024.000000"
 preserveAspectRatio="xMidYMid meet">

<g transform="translate(0.000000,1024.000000) scale(0.100000,-0.100000)"
fill="#000000" stroke="none">
<path d="M12004 9901 c-32 -15 -45 -27 -54 -56 -16 -49 -8 -130 17 -163 19
-26 95 -72 119 -72 7 0 54 -43 105 -95 52 -52 98 -96 104 -99 6 -2 11 22 13
58 2 61 2 61 -48 114 -41 42 -55 52 -73 47 -17 -5 -19 -4 -7 4 8 6 22 11 31
11 21 0 29 20 35 95 9 103 -39 157 -151 169 -37 4 -61 1 -91 -13z m151 -281
c-3 -5 -12 -10 -18 -10 -7 0 -6 4 3 10 19 12 23 12 15 0z"/>
<path d="M12926 9685 c-57 -20 -102 -70 -134 -147 -15 -37 -31 -66 -37 -65 -5
2 -23 29 -40 60 -40 73 -69 103 -121 123 -61 23 -125 12 -192 -33 -29 -20 -59
-48 -67 -63 -18 -34 -27 -173 -14 -209 5 -14 33 -47 62 -73 52 -47 52 -48 23
-48 -66 0 -163 -70 -192 -139 -21 -50 -18 -154 6 -201 61 -121 252 -139 356
-35 31 31 38 16 18 -35 -20 -49 -15 -140 10 -189 9 -17 35 -44 56 -60 110 -80
259 -29 310 105 11 30 20 64 20 74 0 26 17 26 25 0 8 -26 207 -214 272 -258
34 -22 58 -32 70 -28 16 6 16 6 0 -12 -23 -25 -37 -104 -26 -150 5 -20 8 -46
8 -57 0 -18 -1 -19 -12 -3 -19 24 -114 58 -163 58 -104 0 -197 -65 -227 -161
-26 -80 -22 -136 16 -210 40 -80 94 -123 166 -133 l50 -7 -47 -47 c-26 -26
-56 -60 -67 -75 l-20 -28 -75 10 c-41 6 -151 20 -245 31 -93 12 -224 32 -289
45 -92 18 -124 21 -140 13 -19 -10 -20 -10 -7 5 8 10 14 43 15 79 1 49 -5 74
-24 113 -34 68 -71 88 -164 87 -88 0 -113 -13 -156 -83 l-30 -49 -123 82 c-67
45 -178 123 -247 174 -142 104 -220 154 -242 154 -24 0 -41 -27 -34 -54 4 -15
52 -65 119 -123 173 -152 182 -158 366 -270 105 -64 115 -72 64 -52 -67 27
-150 13 -204 -34 -91 -77 -57 -242 61 -305 40 -21 54 -23 126 -19 l82 5 -5
-78 c-7 -102 17 -158 81 -189 106 -52 213 -4 237 106 7 29 15 53 18 53 3 0 15
-7 25 -15 29 -22 85 -18 131 8 48 27 69 77 62 149 -5 62 -29 95 -83 118 -24
11 -44 22 -44 25 0 6 69 -22 84 -34 32 -27 338 -79 517 -88 l116 -6 18 -42
c21 -52 72 -107 123 -131 45 -22 133 -22 182 -1 61 26 130 104 130 146 0 25
20 38 31 20 5 -8 15 -37 24 -65 18 -62 65 -128 105 -149 47 -24 138 -30 183
-12 55 24 103 64 122 103 19 40 21 57 11 99 -5 25 -5 27 3 8 6 -13 14 -23 18
-23 4 0 35 -4 68 -9 61 -10 100 -14 215 -26 101 -11 285 -51 390 -85 157 -52
224 -94 399 -255 215 -196 243 -236 157 -220 -53 10 -239 -23 -347 -61 -125
-45 -311 -140 -326 -167 -9 -16 -12 -17 -13 -6 0 8 5 20 11 26 15 15 2 102
-21 141 -69 114 -268 109 -327 -8 -26 -52 -29 -116 -8 -173 12 -35 12 -38 -3
-31 -10 3 -53 9 -97 11 l-80 5 -51 -40 c-92 -73 -111 -150 -69 -279 14 -42 23
-53 60 -71 23 -11 60 -24 81 -28 56 -10 57 -12 26 -52 -45 -58 -55 -83 -56
-142 -1 -138 125 -233 249 -186 42 17 114 83 116 109 1 6 2 18 3 24 3 27 20
16 29 -17 12 -47 56 -86 118 -104 128 -38 239 55 242 204 1 61 -18 107 -61
147 -26 24 -26 25 -7 39 10 8 28 14 39 14 67 0 140 107 137 200 -1 47 -20 100
-54 144 -8 11 -39 25 -73 33 -55 12 -55 13 -13 8 34 -3 58 1 88 16 95 46 225
81 321 86 93 5 131 -2 223 -42 16 -7 17 7 17 202 l0 208 -96 85 c-120 107
-220 228 -302 365 -120 204 -235 527 -327 926 -20 85 -41 163 -47 174 -10 19
-10 19 8 4 72 -61 200 -31 256 60 15 23 22 55 25 105 6 91 -20 147 -89 191
l-46 31 66 31 c47 23 74 43 90 69 29 44 43 128 32 179 -11 48 -56 113 -98 142
-69 46 -183 41 -260 -11 l-47 -31 0 91 c0 82 -2 94 -26 125 -30 39 -103 79
-145 79 -90 0 -175 -47 -212 -115 -23 -43 -23 -188 0 -233 17 -33 17 -33 -5
-26 -45 14 -135 7 -182 -16 -52 -25 -84 -64 -110 -134 -51 -140 54 -296 202
-296 26 0 55 -5 63 -10 12 -8 10 -14 -12 -37 -63 -67 -63 -209 -1 -283 84
-101 267 -97 338 7 14 21 25 52 25 70 0 17 3 34 8 36 4 3 7 -16 8 -41 1 -124
125 -609 219 -863 25 -67 43 -124 40 -127 -3 -3 -40 28 -83 69 -145 142 -448
366 -479 355 -7 -3 -13 -2 -14 2 0 4 -2 16 -3 28 -6 56 -92 123 -157 124 -14
0 -59 17 -100 39 -98 51 -116 56 -121 35 -2 -10 -3 25 -3 77 0 86 -2 98 -29
142 -64 108 -196 137 -297 66 -26 -18 -26 -18 -54 11 -16 17 -54 49 -84 72
-30 24 -85 71 -121 104 -36 34 -84 71 -107 83 -24 12 -43 24 -43 26 0 3 18 -4
40 -15 47 -24 62 -25 106 -4 172 82 178 338 9 419 -27 13 -68 27 -89 31 l-39
7 27 20 c60 44 102 183 77 259 -18 53 -81 113 -134 127 -56 14 -63 13 -111 -4z
m-191 -420 c6 -16 17 -41 24 -54 l14 -25 23 45 c28 55 50 77 66 61 7 -7 1 -26
-21 -65 -34 -60 -39 -76 -16 -57 10 9 15 9 15 1 0 -6 15 -11 33 -11 42 0 73
-21 64 -45 -5 -13 -15 -16 -35 -12 -15 3 -44 8 -65 12 -34 7 -37 6 -30 -11 4
-11 19 -39 35 -63 30 -48 34 -66 18 -76 -19 -12 -47 15 -65 62 -10 26 -20 51
-24 55 -3 4 -20 -18 -37 -50 -32 -61 -64 -81 -64 -40 0 13 11 43 25 67 32 56
32 61 -9 61 -51 0 -96 19 -96 40 0 29 18 33 66 15 24 -9 53 -15 64 -13 20 3
20 5 -10 51 -37 58 -40 90 -7 85 14 -2 26 -14 32 -33z m1752 10 c5 -14 1 -33
-24 -127 -7 -27 22 -22 69 12 43 31 78 39 78 18 0 -23 -14 -35 -77 -72 -35
-20 -63 -42 -63 -47 0 -6 4 -8 9 -5 14 9 126 -39 129 -56 5 -25 -19 -27 -86
-6 -35 11 -66 18 -68 15 -3 -3 4 -35 15 -72 26 -82 26 -85 2 -85 -15 0 -23 14
-37 67 l-18 68 -9 -35 c-5 -19 -11 -47 -14 -62 -10 -51 -53 -63 -53 -15 0 12
9 46 20 76 12 29 19 56 16 59 -3 2 -21 -7 -41 -22 -19 -15 -51 -30 -70 -33
-31 -5 -33 -4 -28 17 4 14 25 31 59 48 30 14 54 32 54 39 0 7 -19 17 -42 23
-87 22 -103 35 -72 61 13 10 24 8 70 -14 30 -15 57 -27 59 -27 13 0 2 26 -30
74 -38 58 -42 77 -21 95 16 14 24 5 54 -59 11 -25 27 -54 35 -64 13 -18 16
-14 28 55 12 68 21 88 42 89 4 0 10 -7 14 -15z m-1322 -35 c3 -6 -1 -7 -9 -4
-18 7 -21 14 -7 14 6 0 13 -4 16 -10z m1332 -82 c-3 -8 -6 -5 -6 6 -1 11 2 17
5 13 3 -3 4 -12 1 -19z m-144 -193 c-3 -9 -8 -14 -10 -11 -3 3 -2 9 2 15 9 16
15 13 8 -4z m-1366 -177 c-3 -8 -6 -5 -6 6 -1 11 2 17 5 13 3 -3 4 -12 1 -19z
m1563 -133 c0 -5 -5 -3 -10 5 -5 8 -10 20 -10 25 0 6 5 3 10 -5 5 -8 10 -19
10 -25z m-685 -474 c-6 -5 -21 -11 -35 -15 -21 -5 -20 -3 5 9 35 17 42 18 30
6z m88 2 c-7 -2 -19 -2 -25 0 -7 3 -2 5 12 5 14 0 19 -2 13 -5z m-200 -28 c-3
-9 -8 -14 -10 -11 -3 3 -2 9 2 15 9 16 15 13 8 -4z m-184 -54 c9 -6 12 -19 7
-42 -3 -19 -9 -53 -12 -77 l-7 -43 29 7 c16 4 43 16 61 26 34 21 84 21 90 1 5
-14 -51 -45 -114 -63 -24 -7 -43 -16 -43 -20 0 -9 69 -73 107 -99 28 -19 31
-25 23 -42 -6 -10 -16 -19 -22 -19 -6 0 -42 29 -80 65 -38 36 -73 63 -78 60
-5 -3 -7 -36 -5 -74 5 -74 -4 -92 -54 -104 -22 -5 -23 -4 -17 31 3 20 12 60
20 87 17 64 6 68 -69 25 -57 -32 -75 -32 -75 0 0 22 41 46 96 58 64 13 59 23
-55 102 -27 18 -24 54 5 58 11 2 28 -6 39 -18 10 -11 22 -20 26 -20 4 0 22
-15 41 -32 l33 -33 3 30 c2 17 8 35 13 41 5 6 3 26 -3 48 -10 31 -9 39 3 47
17 11 21 11 38 0z m-1338 -128 c13 -16 12 -17 -3 -4 -10 7 -18 15 -18 17 0 8
8 3 21 -13z m1932 -73 c-3 -12 -8 -19 -11 -16 -5 6 5 36 12 36 2 0 2 -9 -1
-20z m-2226 -42 c-3 -8 -6 -5 -6 6 -1 11 2 17 5 13 3 -3 4 -12 1 -19z m2260
-21 c15 -12 51 -38 78 -57 111 -76 285 -233 273 -245 -3 -3 -34 1 -69 9 -74
18 -365 46 -475 46 -53 0 -74 4 -74 13 0 7 -15 35 -34 63 l-35 51 42 -4 c65
-7 147 28 197 84 22 25 40 50 40 54 0 16 28 9 57 -14z m-2239 -109 c2 -4 8 -6
12 -3 5 3 12 0 16 -6 4 -8 3 -9 -4 -5 -20 12 -13 -3 28 -65 23 -32 46 -59 52
-59 6 0 0 -10 -14 -23 -23 -22 -104 -55 -112 -46 -2 2 -6 48 -9 101 -3 59 -10
104 -17 114 -12 13 -10 14 16 8 16 -4 31 -11 32 -16z m2422 -1303 c7 -8 12
-32 12 -54 -1 -34 2 -38 19 -34 11 3 22 9 25 14 3 5 16 9 30 9 45 0 25 -33
-31 -52 -28 -9 -44 -17 -37 -17 7 -1 11 -5 7 -10 -3 -5 9 -20 26 -34 18 -14
29 -29 25 -36 -13 -20 -44 -12 -70 19 l-25 30 -19 -42 c-10 -24 -26 -49 -35
-57 -30 -24 -32 14 -4 68 26 49 26 61 -2 61 -18 0 -61 39 -61 56 0 22 30 24
63 4 17 -11 36 -20 41 -20 5 0 6 22 2 48 -8 61 6 80 34 47z m-130 -115 c0 -5
-2 -10 -4 -10 -3 0 -8 5 -11 10 -3 6 -1 10 4 10 6 0 11 -4 11 -10z m440 -434
c0 -2 -8 -10 -17 -17 -16 -13 -17 -12 -4 4 13 16 21 21 21 13z"/>
<path d="M9187 7963 c-18 -17 -4 -64 32 -109 47 -60 65 -120 56 -189 -8 -64
-64 -285 -110 -440 -20 -66 -40 -131 -44 -144 -5 -18 -19 -27 -51 -36 -25 -7
-103 -29 -175 -50 -110 -33 -145 -39 -225 -39 -79 -1 -103 3 -141 22 -54 26
-65 27 -73 6 -11 -28 -6 -55 19 -108 64 -134 210 -240 340 -244 40 -2 131 22
149 39 35 32 23 -18 -41 -176 -51 -126 -155 -337 -206 -416 -109 -171 -130
-280 -75 -396 26 -55 57 -79 126 -99 62 -18 115 -9 146 25 15 17 185 427 342
826 31 77 75 209 99 293 24 85 49 160 55 167 25 30 239 82 278 67 21 -7 39
-51 58 -142 25 -117 23 -351 -5 -517 -24 -142 -96 -369 -147 -459 -43 -78 -77
-99 -142 -90 -90 12 -156 64 -236 184 -50 75 -70 87 -80 50 -11 -41 -6 -79 25
-212 65 -278 126 -401 222 -453 51 -28 179 -25 240 6 56 29 146 120 206 210
150 221 251 614 251 975 0 170 -20 300 -62 409 -26 69 -42 92 -99 150 -37 37
-87 76 -111 86 -55 25 -198 44 -260 36 -53 -8 -57 -2 -34 43 37 72 116 327
116 373 0 63 -33 162 -71 214 -37 50 -125 110 -192 130 -51 15 -168 21 -180 8z"/>
<path d="M4345 7865 c-5 -1 -48 -8 -95 -14 -47 -6 -152 -20 -235 -31 -161 -21
-381 -43 -615 -60 -80 -6 -172 -13 -205 -15 -682 -55 -1893 -57 -2695 -5 -138
9 -204 15 -438 36 l-62 6 0 -297 c0 -228 3 -297 13 -300 10 -3 235 -14 301
-15 18 0 19 -7 10 -187 -4 -104 -8 -203 -8 -220 l1 -33 -159 0 -158 0 2 -177
3 -178 144 -3 144 -3 -7 -257 c-3 -141 -11 -345 -16 -452 -5 -107 -12 -289
-15 -405 -3 -115 -8 -221 -10 -235 -2 -14 -7 -109 -10 -212 -6 -178 -6 -188
12 -188 10 -1 -33 -22 -96 -48 -70 -28 -119 -55 -128 -68 -9 -15 -14 -48 -14
-94 0 -72 9 -103 86 -295 13 -33 73 -190 134 -350 155 -411 360 -945 375 -980
8 -16 30 -75 50 -130 21 -55 61 -163 91 -240 30 -77 104 -275 166 -440 61
-165 120 -316 130 -336 21 -42 86 -79 137 -79 31 0 221 79 642 265 107 48 235
103 284 123 49 20 149 66 222 102 74 36 134 63 134 60 0 -3 -7 -27 -16 -55
-45 -145 -96 -366 -97 -415 -1 -103 29 -125 243 -184 74 -21 162 -46 195 -56
33 -10 105 -32 160 -49 55 -16 143 -41 196 -55 53 -14 186 -52 297 -85 232
-70 324 -97 552 -156 91 -24 199 -52 241 -63 83 -22 145 -18 179 13 10 9 29
38 41 63 17 38 101 376 203 822 9 36 44 187 80 335 35 149 87 369 115 491 28
121 57 241 64 265 l13 44 149 52 c83 28 229 79 325 113 96 34 283 99 415 145
132 46 310 108 395 138 422 149 408 143 434 207 15 38 15 43 -18 157 -19 65
-48 170 -65 233 -36 139 -172 624 -327 1165 -63 219 -139 483 -168 585 -59
206 -58 201 -91 320 -62 228 -124 430 -141 455 -10 15 -33 34 -51 41 -70 30
-72 29 -678 -181 -137 -47 -308 -107 -380 -131 -141 -49 -834 -278 -875 -289
-47 -13 -88 -45 -99 -77 -19 -55 -12 -106 40 -286 28 -98 64 -222 79 -277 15
-55 56 -194 90 -310 34 -115 84 -286 112 -380 27 -93 69 -233 94 -311 24 -77
44 -143 44 -146 0 -8 -382 94 -610 163 l-65 19 0 48 c0 71 -15 373 -20 407 -6
34 -37 759 -50 1140 -3 83 -8 194 -11 247 l-6 98 243 2 244 3 -3 170 c-2 93
-5 171 -7 173 -2 2 -113 3 -247 3 l-243 -1 0 32 c0 18 -4 116 -8 218 l-8 185
285 -3 284 -4 -5 141 -6 141 85 0 c47 0 112 3 144 6 l60 6 39 162 c62 260 63
266 57 265 -4 0 -11 -2 -17 -4z m-342 -72 c-7 -2 -19 -2 -25 0 -7 3 -2 5 12 5
14 0 19 -2 13 -5z m-96 -9 c-3 -3 -12 -4 -19 -1 -8 3 -5 6 6 6 11 1 17 -2 13
-5z m-870 -70 c-3 -3 -12 -4 -19 -1 -8 3 -5 6 6 6 11 1 17 -2 13 -5z m-2194
-11 c-7 -2 -21 -2 -30 0 -10 3 -4 5 12 5 17 0 24 -2 18 -5z m3424 -175 c-3 -8
-6 -5 -6 6 -1 11 2 17 5 13 3 -3 4 -12 1 -19z m-300 -230 c-3 -8 -6 -5 -6 6
-1 11 2 17 5 13 3 -3 4 -12 1 -19z m-2870 -124 c-3 -3 -12 -4 -19 -1 -8 3 -5
6 6 6 11 1 17 -2 13 -5z m370 0 c-3 -3 -12 -4 -19 -1 -8 3 -5 6 6 6 11 1 17
-2 13 -5z m2040 0 c-3 -3 -12 -4 -19 -1 -8 3 -5 6 6 6 11 1 17 -2 13 -5z
m-2192 -19 l400 -6 5 -215 5 -214 -524 0 -524 0 8 217 c4 120 9 221 11 225 3
5 53 6 112 3 59 -2 287 -7 507 -10z m1749 -42 c3 -32 8 -133 12 -225 l6 -168
-531 0 -531 0 -1 98 c0 53 -3 148 -5 210 -4 86 -2 113 8 117 7 2 240 8 518 13
278 5 508 9 512 10 3 1 9 -24 12 -55z m343 -60 c-3 -10 -5 -4 -5 12 0 17 2 24
5 18 2 -7 2 -21 0 -30z m-2740 -45 c-3 -7 -5 -2 -5 12 0 14 2 19 5 13 2 -7 2
-19 0 -25z m-330 -120 c-3 -8 -6 -5 -6 6 -1 11 2 17 5 13 3 -3 4 -12 1 -19z
m320 -100 c-3 -7 -5 -2 -5 12 0 14 2 19 5 13 2 -7 2 -19 0 -25z m356 -85 c-7
-2 -21 -2 -30 0 -10 3 -4 5 12 5 17 0 24 -2 18 -5z m54 1 c-3 -3 -12 -4 -19
-1 -8 3 -5 6 6 6 11 1 17 -2 13 -5z m116 -1 c-13 -2 -33 -2 -45 0 -13 2 -3 4
22 4 25 0 35 -2 23 -4z m225 0 c-10 -2 -26 -2 -35 0 -10 3 -2 5 17 5 19 0 27
-2 18 -5z m4302 -223 c4 0 13 -21 20 -47 17 -64 86 -304 215 -748 37 -126 70
-239 72 -250 3 -11 20 -69 38 -130 18 -60 47 -162 64 -225 18 -63 36 -126 41
-140 5 -14 32 -108 60 -210 28 -102 71 -250 95 -330 43 -142 105 -365 105
-374 0 -3 -15 3 -32 14 -65 38 -376 179 -399 181 -13 1 -31 1 -40 1 -22 -2
-74 -85 -89 -139 -6 -24 -16 -43 -22 -43 -6 0 -113 52 -237 116 -248 127 -262
130 -313 76 -14 -15 -53 -83 -86 -152 -53 -112 -103 -195 -89 -149 7 22 -27
53 -78 73 -46 18 -252 76 -475 136 -85 23 -162 43 -172 46 -18 5 -30 34 -59
144 -24 88 -114 405 -164 575 -20 66 -49 170 -66 230 -17 61 -69 236 -114 391
-109 368 -106 346 -58 367 21 9 232 81 468 161 237 79 536 181 665 226 129 45
271 93 315 107 44 14 130 42 190 63 61 21 116 36 123 34 8 -2 17 -4 22 -4z
m-4447 -107 c-7 -2 -21 -2 -30 0 -10 3 -4 5 12 5 17 0 24 -2 18 -5z m244 1
c-3 -3 -12 -4 -19 -1 -8 3 -5 6 6 6 11 1 17 -2 13 -5z m80 0 c-3 -3 -12 -4
-19 -1 -8 3 -5 6 6 6 11 1 17 -2 13 -5z m80 0 c-3 -3 -12 -4 -19 -1 -8 3 -5 6
6 6 11 1 17 -2 13 -5z m240 0 c-3 -3 -12 -4 -19 -1 -8 3 -5 6 6 6 11 1 17 -2
13 -5z m161 -1 c-10 -2 -26 -2 -35 0 -10 3 -2 5 17 5 19 0 27 -2 18 -5z m1026
-175 c4 -95 13 -292 22 -438 25 -467 34 -630 44 -865 14 -329 17 -354 43 -365
14 -5 -10 -6 -60 -3 l-82 6 -34 -34 c-22 -22 -36 -48 -41 -74 -4 -22 -45 -204
-91 -405 -46 -201 -96 -422 -111 -492 -16 -70 -32 -124 -35 -120 -4 4 -12 23
-17 42 -6 19 -38 109 -72 200 -161 431 -324 873 -355 960 -13 36 -44 119 -70
185 -25 66 -70 185 -99 265 -116 317 -137 329 -393 215 -70 -31 -166 -74 -213
-95 -47 -21 -151 -69 -231 -108 -80 -38 -156 -73 -170 -77 -25 -8 -273 -119
-400 -179 -42 -20 -81 -36 -87 -36 -6 0 -41 -14 -79 -31 -37 -17 -72 -34 -78
-36 -5 -2 -1 3 9 11 11 9 24 16 29 16 5 0 21 9 36 20 25 17 28 26 30 77 1 32
6 137 11 233 5 96 14 272 20 390 6 118 15 276 20 350 5 74 12 221 15 325 4
105 9 198 12 208 5 18 31 19 666 15 582 -3 1133 0 1608 10 l146 3 7 -173z
m353 -100 c-2 -13 -4 -5 -4 17 -1 22 1 32 4 23 2 -10 2 -28 0 -40z m0 -155
c-3 -10 -5 -4 -5 12 0 17 2 24 5 18 2 -7 2 -21 0 -30z m-2820 -55 c-3 -8 -6
-5 -6 6 -1 11 2 17 5 13 3 -3 4 -12 1 -19z m1307 -730 c8 -13 31 -68 51 -123
20 -55 54 -147 76 -205 63 -161 92 -238 173 -455 77 -208 239 -634 346 -910
94 -245 113 -297 113 -322 0 -12 -10 -64 -22 -115 -56 -236 -82 -347 -127
-535 l-49 -201 -55 -25 c-30 -14 -143 -66 -250 -115 -107 -49 -289 -131 -405
-182 -115 -50 -290 -127 -388 -171 -98 -43 -187 -79 -197 -79 -26 0 -41 26
-85 140 -20 52 -62 163 -94 245 -33 83 -62 161 -66 175 -4 14 -41 111 -82 215
-139 354 -198 508 -330 855 -30 80 -76 201 -103 270 -96 255 -163 429 -217
565 -31 77 -58 157 -61 177 l-5 37 89 42 c49 23 147 67 219 99 72 32 220 100
330 150 110 51 265 120 345 155 80 34 195 85 255 113 155 71 208 94 305 136
47 20 108 48 135 61 63 30 81 31 99 3z m-1524 -478 c-19 -11 -39 -19 -45 -19
-5 0 6 8 25 19 19 11 40 19 45 19 6 0 -6 -8 -25 -19z m2870 -170 c20 -6 21 -8
5 -8 -11 0 -29 3 -40 8 -25 11 1 11 35 0z m233 -67 c-7 -2 -19 -2 -25 0 -7 3
-2 5 12 5 14 0 19 -2 13 -5z m-88 -138 c88 -24 248 -69 355 -101 107 -31 236
-67 285 -80 50 -13 185 -51 300 -84 116 -33 262 -74 325 -91 178 -47 269 -79
280 -98 6 -12 4 -33 -5 -64 -24 -81 -213 -847 -269 -1093 -57 -248 -138 -591
-206 -868 -21 -89 -64 -271 -95 -406 -30 -134 -62 -255 -71 -268 -17 -25 -32
-25 -124 3 -43 13 -167 46 -450 120 -69 18 -260 71 -425 119 -165 47 -417 119
-560 159 l-260 73 1 60 c1 32 20 138 43 234 23 96 48 204 57 240 8 36 21 92
29 125 33 135 170 723 210 900 49 219 73 319 160 685 35 146 73 312 86 370 12
58 29 112 36 121 17 20 36 16 298 -56z"/>
<path d="M4960 5950 c-87 -15 -127 -30 -211 -80 -204 -123 -327 -320 -359
-575 -46 -372 167 -724 490 -810 76 -20 293 -20 374 1 222 57 405 234 487 470
33 98 34 101 33 264 0 153 -2 171 -28 245 -106 308 -359 497 -661 494 -44 -1
-100 -5 -125 -9z"/>
<path d="M1611 4525 c-40 -19 -80 -35 -87 -35 -8 0 -14 -4 -14 -9 0 -5 -9 -12
-19 -16 -27 -8 -34 -63 -8 -71 26 -8 83 3 137 27 71 32 74 35 84 61 9 26 1 78
-12 78 -4 -1 -40 -16 -81 -35z"/>
<path d="M1760 4425 c-19 -7 -62 -26 -95 -43 -33 -16 -77 -35 -97 -42 -20 -8
-34 -18 -31 -23 3 -6 1 -7 -5 -3 -7 4 -29 -2 -50 -13 -20 -10 -45 -22 -54 -25
-23 -7 -23 -40 -1 -77 22 -37 40 -37 89 4 109 90 176 126 237 127 32 0 39 -4
48 -27 6 -16 9 -64 7 -108 -5 -93 -28 -155 -93 -242 -24 -32 -41 -62 -38 -66
3 -5 26 -7 50 -4 122 13 211 177 201 367 -9 160 -63 216 -168 175z"/>
<path d="M825 4233 c-36 -9 -45 -24 -41 -67 2 -22 11 -61 20 -85 19 -52 12
-64 -42 -82 -106 -33 -126 -61 -79 -113 l22 -26 59 25 c33 13 62 28 65 34 3 5
5 -30 4 -77 -3 -90 -18 -178 -35 -199 -11 -14 -3 -63 11 -63 4 0 23 10 42 23
49 33 61 78 63 237 l1 135 37 3 c54 5 70 -25 76 -142 l5 -94 -42 -44 c-22 -25
-41 -50 -41 -56 0 -16 68 -32 94 -22 37 14 74 66 82 116 14 98 -21 247 -72
301 -33 35 -35 35 -98 31 l-65 -4 -6 46 c-17 127 -20 132 -60 123z"/>
<path d="M1077 4202 c-10 -10 -17 -22 -17 -27 0 -4 25 -33 56 -64 31 -31 63
-68 72 -83 33 -57 105 -21 89 44 -14 53 -120 148 -165 148 -11 0 -26 -8 -35
-18z"/>
<path d="M1754 3681 c-43 -26 -46 -35 -25 -57 32 -35 53 -74 48 -88 -3 -7 -28
-19 -56 -26 -66 -16 -78 -30 -55 -70 29 -48 79 -51 114 -7 20 24 37 17 52 -21
23 -58 19 -79 -27 -148 -25 -37 -45 -72 -45 -79 0 -16 19 -31 48 -38 18 -4 22
-2 18 9 -3 8 -1 14 4 14 6 0 10 7 10 15 0 9 9 15 23 15 18 0 19 -2 7 -10 -12
-8 -13 -12 -1 -19 10 -7 8 -12 -10 -25 -24 -17 -24 -17 -4 -29 65 -39 120 -46
135 -17 12 23 6 112 -10 154 -5 15 -10 38 -10 50 0 31 51 80 102 97 40 13 41
13 69 -19 20 -22 29 -43 29 -66 0 -36 -15 -54 -68 -80 -27 -14 -31 -20 -21
-32 20 -24 71 -17 111 17 64 52 75 160 21 213 -21 21 -35 26 -75 26 -75 0
-136 -19 -169 -53 -25 -24 -33 -28 -40 -16 -5 8 -9 24 -9 37 0 12 -7 38 -14
57 -15 35 -14 36 25 81 44 51 48 64 19 71 -11 3 -20 9 -20 13 0 5 -8 7 -17 5
-11 -1 -17 -10 -16 -21 1 -17 -22 -43 -39 -44 -5 0 -8 9 -8 20 0 11 -4 20 -9
20 -5 0 -12 16 -15 35 -8 41 -25 45 -72 16z"/>
<path d="M2070 3618 c-29 -31 -25 -46 15 -54 20 -3 49 -19 65 -35 34 -35 43
-36 69 -8 18 20 19 24 6 50 -34 64 -115 89 -155 47z"/>
<path d="M1037 3383 c-13 -13 -7 -59 14 -97 24 -44 20 -51 -41 -69 -50 -14
-66 -34 -56 -70 13 -55 66 -73 109 -38 38 32 40 -43 2 -132 -14 -34 -14 -40 0
-67 27 -51 61 -39 95 33 23 48 23 80 4 216 -4 27 -3 41 3 38 16 -10 80 40 85
67 9 47 -32 61 -71 25 -30 -28 -51 -18 -51 23 0 46 -24 78 -59 78 -15 0 -31
-3 -34 -7z"/>
<path d="M1383 3383 c-7 -2 -13 -10 -13 -18 0 -21 51 -125 61 -125 25 0 69 33
75 54 14 56 -65 113 -123 89z"/>
<path d="M1320 3171 c-16 -31 -12 -60 13 -85 l23 -23 -49 -34 c-57 -39 -80
-77 -80 -133 0 -50 34 -82 98 -91 83 -13 137 41 139 138 1 50 5 52 58 32 17
-7 68 31 68 49 0 7 -12 25 -27 40 -24 25 -31 26 -78 21 -59 -8 -72 0 -102 65
-20 43 -46 52 -63 21z m58 -228 c2 -42 -17 -61 -56 -55 -39 5 -40 12 -6 51 33
39 59 41 62 4z"/>
<path d="M3885 3866 c-120 -37 -193 -128 -221 -274 -8 -41 -16 -78 -19 -80 -2
-3 -24 11 -47 30 -87 70 -116 82 -193 82 -120 1 -201 -52 -256 -170 -76 -159
1 -357 166 -425 30 -12 55 -25 54 -28 0 -3 -26 -18 -57 -33 -68 -33 -135 -94
-164 -152 -25 -49 -35 -163 -19 -222 6 -22 27 -59 46 -81 109 -128 312 -128
453 0 63 57 61 58 82 -45 15 -74 63 -144 125 -183 43 -27 57 -30 129 -30 64 0
90 5 122 22 147 78 195 243 115 400 -17 34 -31 68 -31 75 0 10 24 13 92 13 73
0 103 4 139 21 56 26 115 77 136 118 34 65 55 207 33 221 -5 3 -10 17 -10 30
0 13 -10 34 -23 47 -13 13 -35 39 -50 59 -49 67 -178 109 -275 88 -30 -6 -56
-8 -59 -5 -3 3 9 43 27 88 38 98 43 183 15 267 -29 88 -81 136 -184 167 -55
17 -73 17 -126 0z m312 -318 c-3 -8 -6 -5 -6 6 -1 11 2 17 5 13 3 -3 4 -12 1
-19z m-282 -259 c4 -11 -11 -49 -39 -98 -49 -85 -54 -100 -33 -102 28 -4 95 2
140 12 62 14 97 6 97 -24 0 -43 -15 -51 -87 -51 -37 0 -87 3 -110 8 -62 11
-63 -7 -3 -112 55 -96 58 -122 18 -143 -14 -8 -27 -8 -43 -1 -19 9 -25 21 -30
69 -10 96 -16 128 -24 141 -14 22 -56 -6 -105 -69 -26 -33 -54 -59 -64 -59
-26 0 -42 20 -42 51 0 29 22 48 103 86 26 12 47 29 47 37 0 8 6 16 13 19 19 6
-47 60 -95 77 -40 14 -43 18 -46 56 -2 30 2 45 18 59 19 18 21 18 41 -1 12
-10 39 -43 61 -71 21 -29 43 -53 48 -53 13 0 50 106 50 145 0 22 8 43 21 56
20 20 22 20 40 3 10 -9 21 -25 24 -35z"/>
<path d="M10260 7095 c-20 -24 4 -59 79 -113 188 -133 351 -334 381 -468 14
-64 2 -79 -108 -138 -88 -46 -121 -79 -109 -109 5 -13 138 -45 222 -52 17 -2
72 -19 122 -39 50 -20 116 -38 145 -42 49 -6 57 -3 103 28 41 28 55 46 74 94
24 59 24 60 9 161 -19 127 -62 222 -156 346 -66 88 -161 171 -255 222 -160 88
-470 155 -507 110z"/>
<path d="M13283 6393 c-25 -5 -34 -23 -26 -52 4 -15 20 -25 57 -35 82 -22 230
-47 314 -53 42 -2 105 -8 138 -12 79 -9 109 1 99 32 -4 12 -9 34 -12 50 -3 17
-13 29 -27 32 -29 6 -487 46 -506 44 -8 -1 -25 -4 -37 -6z"/>
<path d="M12405 5869 c-143 -66 -228 -102 -290 -123 -27 -10 -87 -31 -133 -47
-146 -51 -266 -37 -364 42 -31 26 -54 20 -68 -16 -14 -36 12 -155 47 -213 64
-110 230 -232 315 -232 46 0 147 45 260 117 181 114 228 141 228 132 0 -14
-223 -341 -313 -459 -181 -236 -334 -409 -497 -565 -223 -213 -227 -217 -240
-265 -20 -71 -16 -148 9 -205 29 -66 54 -90 106 -105 69 -19 98 -3 254 140
283 260 576 443 800 501 120 31 269 22 351 -21 103 -52 158 -199 139 -365 -24
-212 -151 -393 -347 -494 -25 -13 -27 -11 -35 50 -20 141 -182 277 -359 300
-154 20 -279 -12 -365 -94 -136 -128 -149 -306 -33 -446 83 -99 195 -161 347
-191 94 -19 327 -8 433 20 161 43 331 130 441 228 150 133 240 338 239 544 0
226 -71 395 -228 539 -91 84 -157 122 -267 154 -81 24 -100 26 -200 21 -152
-8 -284 -45 -497 -140 -24 -10 -38 -12 -38 -6 0 15 109 145 341 405 181 204
258 280 366 363 82 64 105 165 58 258 -34 68 -126 158 -199 194 -87 44 -127
40 -261 -21z m-213 -2018 c47 -20 84 -56 114 -111 29 -52 57 -130 49 -138 -9
-9 -213 -9 -247 1 -15 4 -43 24 -63 44 -30 31 -35 43 -35 85 0 41 5 54 33 84
18 20 47 39 67 44 19 4 36 8 37 9 1 1 21 -7 45 -18z"/>
<path d="M7261 5052 c-19 -9 -43 -29 -54 -44 -18 -24 -188 -526 -506 -1493
-66 -198 -192 -574 -280 -835 -142 -417 -161 -481 -158 -524 8 -89 4 -87 557
-301 292 -113 470 -183 945 -373 470 -188 479 -190 540 -92 24 39 30 55 295
840 239 706 329 969 375 1100 149 423 295 870 295 907 0 78 -43 111 -249 188
-66 24 -252 96 -413 160 -429 169 -588 231 -638 250 -25 10 -157 60 -295 112
-241 92 -333 123 -365 123 -8 0 -30 -8 -49 -18z m218 -187 c237 -91 783 -303
911 -352 80 -31 263 -103 407 -160 145 -56 266 -103 269 -103 16 0 44 -35 44
-55 0 -11 -74 -239 -164 -505 -90 -267 -240 -714 -334 -995 -423 -1260 -406
-1215 -449 -1215 -11 0 -273 102 -383 149 -47 20 -1055 419 -1203 476 -90 35
-151 64 -157 75 -12 22 16 108 534 1660 267 802 350 1039 367 1053 27 21 38
19 158 -28z"/>
<path d="M8033 4328 c-11 -13 -30 -40 -42 -60 -24 -41 -29 -43 -119 -57 -132
-21 -257 -122 -327 -265 -51 -102 -58 -204 -25 -342 21 -88 22 -100 9 -137
-12 -36 -21 -44 -64 -61 -115 -44 -181 -79 -239 -125 -73 -58 -113 -107 -160
-192 -48 -88 -66 -157 -73 -274 -11 -195 53 -361 197 -506 69 -70 101 -94 170
-128 191 -93 355 -93 550 1 154 74 271 221 316 398 23 87 23 246 1 330 -9 36
-47 124 -83 196 -59 116 -66 136 -61 170 4 22 15 45 24 51 158 112 229 226
240 383 10 133 -33 253 -133 379 -51 63 -52 64 -38 97 25 59 18 98 -21 133
-44 38 -92 42 -122 9z"/>
<path d="M10108 3477 c-50 -26 -70 -60 -76 -133 -5 -55 20 -120 40 -108 7 4 8
3 4 -4 -9 -15 33 -41 85 -52 l44 -9 -50 2 -49 2 -12 -115 c-6 -63 -20 -174
-29 -247 l-18 -132 -36 59 c-68 110 -59 103 -114 84 -62 -21 -72 -12 -12 10
25 10 43 22 39 27 -3 5 0 8 6 7 7 -2 22 10 33 25 70 92 -35 257 -164 257 -56
0 -119 -39 -146 -90 -29 -55 -29 -104 0 -160 28 -57 72 -86 141 -94 l54 -7 41
-82 c22 -45 57 -109 77 -142 20 -33 49 -86 64 -118 15 -31 34 -65 41 -75 7 -9
-8 4 -34 29 -91 90 -226 91 -309 2 -30 -31 -58 -109 -58 -159 0 -17 7 -54 16
-83 21 -72 72 -121 157 -151 37 -13 67 -26 67 -29 0 -3 -19 -14 -41 -25 -110
-51 -160 -233 -96 -349 30 -54 100 -105 154 -113 63 -9 146 11 182 45 25 24
31 26 37 12 3 -9 39 -110 79 -226 114 -328 160 -444 242 -608 49 -99 56 -94
-72 -58 -38 11 -152 43 -253 71 -167 47 -251 76 -358 126 -63 28 -174 103
-181 120 -5 13 -15 15 -52 10 l-46 -6 43 14 c52 17 78 47 91 106 21 100 -21
209 -99 254 -54 32 -129 28 -182 -10 -61 -42 -80 -83 -76 -166 l4 -66 -26 13
c-14 7 -49 34 -78 59 -30 25 -56 46 -60 46 -3 0 -14 -7 -24 -17 -23 -21 -23
-12 1 15 10 12 21 19 24 16 11 -12 20 48 14 98 -9 71 -47 131 -100 157 -91 44
-191 15 -251 -73 -51 -76 -27 -214 48 -271 71 -54 180 -61 218 -15 16 20 18
21 16 3 -4 -24 66 -84 222 -191 258 -178 567 -311 993 -427 284 -77 371 -145
647 -503 l25 -33 137 3 138 3 -23 26 c-45 54 -264 323 -326 402 l-64 82 7 110
c6 101 30 236 73 405 21 84 123 376 162 463 59 131 62 177 10 177 -38 0 -64
-36 -143 -201 -107 -223 -189 -496 -227 -758 l-12 -84 -17 44 c-9 24 -39 87
-67 139 -67 126 -128 266 -233 535 -28 71 -56 133 -63 137 -6 4 -7 8 -2 8 6 0
21 -12 35 -26 89 -94 254 -32 295 110 22 74 10 147 -35 213 -17 25 -28 48 -25
51 3 4 23 5 43 4 20 -2 61 2 90 7 88 17 134 65 159 165 15 60 14 69 -2 118
-28 89 -81 145 -148 156 -90 16 -217 -11 -200 -42 3 -6 0 -6 -7 1 -10 10 -9
20 7 55 74 159 47 300 -69 363 -98 54 -253 20 -300 -65 l-20 -35 6 30 c13 68
76 520 76 546 0 22 8 31 44 49 60 28 91 89 84 161 -12 117 -125 179 -230 126z
m198 -1223 c4 -14 1 -37 -5 -50 -16 -35 -14 -104 2 -104 8 0 35 16 62 34 27
19 52 33 57 30 25 -15 -10 -63 -71 -96 -33 -18 -41 -38 -15 -38 9 0 12 5 8 12
-4 7 -3 8 5 4 6 -4 9 -12 5 -17 -3 -5 17 -19 45 -31 47 -19 64 -42 45 -61 -6
-5 -54 18 -128 60 -32 19 -30 1 9 -65 38 -66 43 -87 20 -96 -25 -9 -64 43 -79
107 -9 38 -21 27 -42 -36 -26 -80 -58 -109 -69 -64 -4 16 5 45 29 90 39 73 35
80 -31 52 -51 -22 -83 -20 -83 5 0 23 23 34 93 44 26 4 47 13 47 19 0 7 -25
35 -56 62 -41 37 -54 54 -49 68 12 28 33 20 82 -33 26 -27 50 -50 54 -50 4 0
10 37 14 83 4 45 9 85 12 90 10 16 33 5 39 -19z m-86 -639 c0 -5 -5 -3 -10 5
-5 8 -10 20 -10 25 0 6 5 3 10 -5 5 -8 10 -19 10 -25z m64 -107 c8 -6 8 -8 0
-8 -11 0 -64 72 -64 87 0 4 12 -10 27 -32 14 -22 31 -43 37 -47z m-952 -443
l20 -30 -26 28 c-14 15 -26 36 -25 45 0 14 2 14 6 2 3 -8 15 -28 25 -45z m141
-72 c-7 -2 -21 -2 -30 0 -10 3 -4 5 12 5 17 0 24 -2 18 -5z"/>
<path d="M14603 3090 c-74 -38 -116 -163 -78 -230 23 -41 18 -42 -29 -6 -48
37 -110 52 -151 36 -57 -22 -72 -14 -119 58 -61 95 -110 134 -135 109 -28 -28
-8 -79 83 -211 l54 -80 -15 -38 c-10 -25 -14 -57 -10 -91 4 -46 10 -56 50 -93
38 -34 58 -44 106 -52 32 -6 67 -8 78 -6 14 4 59 -34 173 -147 85 -83 200
-190 255 -237 55 -48 129 -113 165 -146 36 -33 124 -107 195 -164 l130 -103 3
77 c2 43 1 83 -2 89 -2 6 -71 65 -152 131 -82 65 -182 150 -222 188 -127 121
-202 279 -230 486 -7 51 -6 57 9 53 25 -7 77 55 94 114 31 106 9 196 -60 249
-51 38 -132 44 -192 14z m114 4 c-3 -3 -12 -4 -19 -1 -8 3 -5 6 6 6 11 1 17
-2 13 -5z m-451 -264 c-14 -17 -26 -36 -26 -42 0 -6 -3 -9 -6 -6 -7 7 12 45
34 71 27 31 25 9 -2 -23z m452 -127 c-10 -2 -26 -2 -35 0 -10 3 -2 5 17 5 19
0 27 -2 18 -5z m-121 -85 c-3 -8 -6 -5 -6 6 -1 11 2 17 5 13 3 -3 4 -12 1 -19z
m63 -107 c6 -25 13 -55 16 -66 3 -12 -12 -1 -40 30 -70 76 -71 80 -26 81 38 1
39 0 50 -45z m-100 34 c0 -6 -56 -35 -67 -35 -4 1 8 9 27 20 39 22 40 22 40
15z"/>
<path d="M11920 3010 c0 -4 -13 -10 -30 -13 -46 -10 -40 -44 23 -118 l52 -63
0 -95 c0 -105 -31 -311 -50 -337 -15 -21 -261 -80 -395 -95 -52 -6 -129 -8
-171 -4 -62 5 -78 3 -88 -9 -40 -48 69 -185 199 -252 58 -29 140 -44 232 -40
49 2 88 -1 88 -6 0 -23 -260 -653 -334 -811 -26 -54 -61 -140 -78 -190 -26
-80 -30 -102 -26 -172 7 -123 44 -183 128 -206 57 -15 111 5 139 52 11 17 45
111 76 208 83 259 149 463 220 671 34 102 88 264 120 360 31 96 61 182 65 190
5 9 57 30 117 49 127 39 292 102 347 134 59 33 81 69 79 128 -2 88 -53 140
-166 171 -41 10 -56 10 -105 -3 -31 -9 -64 -19 -73 -23 -13 -6 -12 4 8 61 17
50 22 80 18 113 -18 139 -80 218 -205 263 -77 28 -190 49 -190 37z"/>
<path d="M13865 2156 c-72 -32 -120 -118 -109 -194 13 -90 58 -140 146 -167
65 -19 105 -19 142 0 24 13 27 13 17 1 -10 -12 4 -22 84 -60 53 -25 98 -46
101 -46 3 0 18 -9 32 -21 l27 -21 -30 9 c-82 22 -173 -16 -220 -92 -26 -42
-30 -58 -30 -119 0 -39 7 -88 14 -109 32 -93 128 -156 241 -159 l31 -1 -24
-26 c-71 -76 -89 -192 -43 -285 45 -93 131 -131 236 -106 28 7 65 24 81 37 31
26 69 91 69 116 0 8 6 27 14 41 l14 27 30 -54 c33 -59 72 -89 141 -107 91 -24
195 30 241 126 27 58 21 130 -16 187 -25 38 -23 48 5 23 16 -14 287 -166 296
-166 3 0 5 35 5 78 l0 77 -83 42 c-45 24 -118 59 -162 78 -44 19 -73 35 -65
35 23 0 86 69 105 112 34 83 10 194 -56 252 -60 54 -163 62 -255 21 -31 -14
-58 -25 -60 -25 -2 0 -3 46 -1 103 2 89 -1 108 -21 149 -33 66 -79 104 -145
118 -125 26 -224 -46 -261 -189 -7 -28 -16 -54 -19 -58 -7 -7 -133 75 -159
104 -9 10 -22 40 -28 67 -22 99 -74 176 -137 202 -41 18 -109 17 -148 0z m265
-273 c-11 -17 -11 -17 -6 0 3 10 6 24 7 30 0 9 2 9 5 0 3 -7 0 -20 -6 -30z
m-29 -56 l-23 -22 17 28 c10 15 20 25 23 22 3 -3 -5 -16 -17 -28z m256 -99
c-2 -13 -4 -3 -4 22 0 25 2 35 4 23 2 -13 2 -33 0 -45z m-12 -78 c-3 -5 -14
-10 -23 -9 -14 0 -13 2 3 9 27 11 27 11 20 0z m350 -86 c9 -9 14 -19 13 -23
-25 -47 -58 -126 -56 -132 2 -3 14 -2 28 4 108 45 122 46 118 10 -3 -25 -9
-29 -68 -43 -79 -19 -83 -36 -17 -68 46 -22 61 -47 33 -58 -13 -5 -53 10 -106
41 l-25 14 -5 -76 c-4 -57 -9 -79 -22 -87 -30 -18 -40 3 -28 65 6 30 13 62 16
72 9 30 -25 19 -77 -24 -29 -24 -55 -39 -64 -35 -30 11 -13 37 51 78 59 37 65
43 49 54 -9 7 -33 15 -54 19 -51 9 -64 19 -56 44 8 26 30 27 78 1 72 -39 84
-23 37 46 -28 43 -34 56 -31 82 2 19 41 14 47 -5 3 -10 10 -26 15 -35 5 -10 9
-25 9 -34 0 -8 5 -25 11 -36 14 -27 22 -15 49 75 12 37 25 67 30 67 5 0 16 -7
25 -16z m345 -288 c0 -3 -4 -8 -10 -11 -5 -3 -10 -1 -10 4 0 6 5 11 10 11 6 0
10 -2 10 -4z"/>
<path d="M12797 2008 c-232 -23 -485 -124 -533 -214 -19 -35 -19 -36 1 -51 17
-12 37 -14 120 -7 123 9 232 7 305 -7 96 -18 92 -16 73 -52 -9 -18 -36 -54
-59 -81 -42 -46 -59 -96 -32 -96 7 0 71 29 143 65 97 49 160 73 250 95 164 41
162 40 171 95 14 96 -28 173 -119 216 -84 39 -182 51 -320 37z"/>
<path d="M12234 1334 c-23 -56 -15 -238 14 -318 92 -253 358 -410 707 -418
171 -4 262 18 289 71 13 25 14 39 5 82 -14 66 -74 133 -162 180 l-62 34 -170
1 c-184 1 -236 10 -327 55 -98 49 -155 118 -213 260 -39 97 -58 109 -81 53z"/>
</g>
</svg>
